<svg id="图层_1" data-name="图层 1" xmlns="http://www.w3.org/2000/svg" viewBox="0 0 150 40"><title>画板 1</title><path d="M27.91,6l.34.82A6.85,6.85,0,0,0,26.38,8a3.25,3.25,0,0,0-.85,1.35,7.34,7.34,0,0,0-.25,2.22c0,.32,0,.74,0,1.27L25.6,26a6.33,6.33,0,0,0,.45,2.83.86.86,0,0,0,.72.47c.34,0,.86-.34,1.58-1l.52.66L25.6,31.69l-1.09.89a4.09,4.09,0,0,1-2-1.72,8.06,8.06,0,0,1-.66-3.43l-6.79,5.15Q9.4,28.85,7.33,28.84a1.25,1.25,0,0,0-.86.32.8.8,0,0,0-.26.65,2,2,0,0,0,.33,1,2.73,2.73,0,0,1,.44,1,.75.75,0,0,1-.25.57.84.84,0,0,1-.59.23.83.83,0,0,1-.71-.35A1.9,1.9,0,0,1,5.05,31a4.62,4.62,0,0,1,.48-1.89A12.07,12.07,0,0,1,7,26.84c.13-.18.25-.34.35-.5l2.52-3.43a13.37,13.37,0,0,1-3.58-3.67,7.6,7.6,0,0,1-1-3.94,9,9,0,0,1,1.29-4.69A8.88,8.88,0,0,1,10.4,7.2,12.21,12.21,0,0,1,15.73,6a13.4,13.4,0,0,1,8.11,2.92,13.12,13.12,0,0,1,1.82-1.64A13.33,13.33,0,0,1,27.91,6ZM19.27,10a9.89,9.89,0,0,0-4.41-1.09,9.65,9.65,0,0,0-4.4,1,7.43,7.43,0,0,0-3.08,2.65,6.25,6.25,0,0,0-1,3.33c0,2.4,1.29,4.52,3.89,6.37l5.88-8a5.06,5.06,0,0,0-2.37-.72A2.8,2.8,0,0,0,11.38,15c-.11.19-.23.28-.35.28a.29.29,0,0,1-.21-.1.41.41,0,0,1-.1-.27,3.44,3.44,0,0,1,.56-1.51,4.16,4.16,0,0,1,1.63-1.56,4.63,4.63,0,0,1,2.28-.6,7.89,7.89,0,0,1,2.79.6ZM10.42,23.51,8.82,25.7l8.93,3.84,4.14-3.06-.07-3ZM21.54,11.84q-.51-.55-.69-.72a9.17,9.17,0,0,0-.88-.65L12.3,21h9.45Z"/><path d="M40.76,13.85,43.42,17,40.76,19.4l-2.22-2.81-1.75,1.58V28.4l2,1.44,1.81-1.42L41,29l-4.51,3.6a15.6,15.6,0,0,0-2.41-1.84A8.76,8.76,0,0,0,32,29.86v-.39a2.82,2.82,0,0,0,1-1.1,6.12,6.12,0,0,0,.24-2.11V19.08a3.61,3.61,0,0,0-.3-1.8.84.84,0,0,0-.67-.45c-.26,0-.62.24-1.08.71L30.73,17l3.66-3.18a8.84,8.84,0,0,1,2,2,2.57,2.57,0,0,1,.35,1.46Z"/><path d="M44.74,15.76l4.9-6h.51L50,14.57h3.53v2H50V28.38l2,1.46L53.07,29l.44.53-3.88,3.09a10.11,10.11,0,0,0-4.47-2.74v-.35a2.51,2.51,0,0,0,.93-1,4.63,4.63,0,0,0,.3-1.88V16.53H44.74Z"/><path d="M58.67,13.85l3.12,2.59L60.4,17.78v9.57a5,5,0,0,0,.25,2c.17.31.35.46.53.46a.73.73,0,0,0,.35-.09,7.73,7.73,0,0,0,.92-.7l.43.55-3.77,3a5.18,5.18,0,0,1-1.82-1.89,8.21,8.21,0,0,1-.41-3.1V17.78l-1.31-1.34Zm1.33-6h2.23l-2.43,3.8h-.7Z"/><path d="M71.13,13.85l4.56,2.61-1.87,2.73-3.44-2V28.42L73.84,30l1.84-1.33.19.75-4.35,3.2a20.22,20.22,0,0,0-2.88-1.39,18.93,18.93,0,0,0-2.93-.79V30a2.07,2.07,0,0,0,.81-.91,6,6,0,0,0,.28-2.15v-10A15.66,15.66,0,0,0,71.13,13.85Z"/><path d="M89.62,13.85l3.14,2.61-1.42,1.29V27a4.34,4.34,0,0,0,.45,2.28q.28.48.63.48a2.34,2.34,0,0,0,1-.57l.43.55-3.74,2.86a6,6,0,0,1-1.83-1.76,5.6,5.6,0,0,1-.46-2.49,47.14,47.14,0,0,0-5.57,4.25A8.23,8.23,0,0,1,80,30.24a5.81,5.81,0,0,1-.53-2.67V18.89a2.82,2.82,0,0,0-.16-1.2.88.88,0,0,0-.78-.49,2.23,2.23,0,0,0-1.11.6L77,17.26l4.16-3.41,3.19,2.61L83,17.62V27a3.25,3.25,0,0,0,.27,1.52,4.41,4.41,0,0,0,1.28,1.23l3.22-2.38V17.75l-1.25-1.29Z"/><path d="M103.38,7.39v.46a4.45,4.45,0,0,0-2,1.77,6.81,6.81,0,0,0-.57,3.17V28.42l2,1.49.78-.63.43.63-3.52,2.67a17.38,17.38,0,0,0-2.39-1.84,9.14,9.14,0,0,0-2.08-.83v-.38a2.3,2.3,0,0,0,.76-.76,3.16,3.16,0,0,0,.38-1.07c0-.14,0-.85.05-2.11V13a13.82,13.82,0,0,0-.12-2.23,3.49,3.49,0,0,0-.49-1.19A6.1,6.1,0,0,0,95.4,8.34L95.68,8a6.16,6.16,0,0,1,2.87,1.86A8.77,8.77,0,0,1,100.93,8,6.26,6.26,0,0,1,103.38,7.39Z"/><path d="M118.43,14.6l.63.25a11,11,0,0,0-1.21,2.26,7,7,0,0,0-.25,2.11v7.49a6.19,6.19,0,0,0,.26,2.33.77.77,0,0,0,.64.47,1.07,1.07,0,0,0,.4-.1l.75-.61.43.55-3.74,3.23a6.7,6.7,0,0,1-1.81-1.89,5.24,5.24,0,0,1-.52-2.32l-5.33,4.21q-3-2.46-3-4.86a7,7,0,0,1,.66-3,19.81,19.81,0,0,1,3-4.31l-2.12-4.52.25-.45c.46,0,.79.05,1,.05a4.9,4.9,0,0,0,3.64-1.63,13.82,13.82,0,0,0,2.8,1.2,8.93,8.93,0,0,0,2.33.45,1.08,1.08,0,0,0,.56-.13A3.83,3.83,0,0,0,118.43,14.6ZM114,17.94l-6-1.84,2.14,4.53L114,22.44Zm0,5.24-4.25-2a9.2,9.2,0,0,0-1,3.77,5.57,5.57,0,0,0,2.58,4.7L114,27.51Z"/><path d="M121.54,15.76l4.9-6H127l-.17,4.86h3.53v2h-3.53V28.38l2,1.46,1.13-.88.44.53-3.88,3.09A10.11,10.11,0,0,0,122,29.84v-.35a2.51,2.51,0,0,0,.93-1,4.63,4.63,0,0,0,.3-1.88V16.53h-1.65Z"/><path d="M139.77,13.85l4.95,5.78-7.87,5.52v3.2L140.93,30l2.76-1.88.38.53-5.68,4a23.32,23.32,0,0,0-2.87-1.33,26.74,26.74,0,0,0-3.21-.85V30a1.71,1.71,0,0,0,.8-.87,7.46,7.46,0,0,0,.2-2.24v-10c1.11-.4,2-.76,2.75-1.09C136.58,15.46,137.82,14.84,139.77,13.85Zm-2.68,2-.24.12v8l4.63-3.24Z"/></svg>